<svg xmlns="http://www.w3.org/2000/svg" viewBox="0 0 64 64" width="64" height="64">
  <defs>
    <linearGradient id="heartGradient" x1="0%" y1="0%" x2="100%" y2="100%">
      <stop offset="0%" style="stop-color:#6366f1;stop-opacity:1" />
      <stop offset="50%" style="stop-color:#8b5cf6;stop-opacity:1" />
      <stop offset="100%" style="stop-color:#ec4899;stop-opacity:1" />
    </linearGradient>
  </defs>

  <!-- Background circle -->
  <circle cx="32" cy="32" r="30" fill="white" stroke="url(#heartGradient)" stroke-width="2"/>

  <!-- Heart icon -->
  <path d="M32 50c-1.2 0-2.4-0.5-3.2-1.4L16.6 36.2c-3.5-3.8-3.5-9.6 0-13.4 3.5-3.8 9.1-3.8 12.6 0L32 25.8l2.8-3c3.5-3.8 9.1-3.8 12.6 0 3.5 3.8 3.5 9.6 0 13.4L35.2 48.6c-0.8 0.9-2 1.4-3.2 1.4z" fill="url(#heartGradient)"/>

  <!-- Small cross inside heart -->
  <path d="M32 28v8M28 32h8" stroke="white" stroke-width="2" stroke-linecap="round"/>
</svg>